<?xml version="1.0" encoding="UTF-8" standalone="no"?>
<!DOCTYPE svg PUBLIC "-//W3C//DTD SVG 1.1//EN" "http://www.w3.org/Graphics/SVG/1.1/DTD/svg11.dtd">
<svg version="1.1" xmlns="http://www.w3.org/2000/svg" xmlns:xlink="http://www.w3.org/1999/xlink" preserveAspectRatio="xMidYMid meet" viewBox="0 0 108 72" width="108" height="72"><defs><path d="M0.04 0.13L108.04 0.13L108.04 72.13L0.04 72.13L0.04 0.13Z" id="bC3D63uYc"></path><path d="M108 -0.1L108 27.66L98.4 27.66L98.4 -0.1L108 -0.1Z" id="bIY9430JO"></path><path d="M79.57 72.13L107.33 72.13L107.33 62.9L79.57 62.9L79.57 72.13Z" id="b3P4WoKlB"></path><path d="M0.39 0.13L28.15 0.13L28.15 9.36L0.39 9.36L0.39 0.13Z" id="a8DvOLp96"></path><path d="M78.07 0L105.83 0L105.83 9.23L78.07 9.23L78.07 0Z" id="a4cSWXbNM"></path><path d="M107.99 72.23L107.99 44.47L98.76 44.47L98.76 72.23L107.99 72.23Z" id="cgaqX4xD9"></path><path d="M0 28.05L0 0.29L9.22 0.29L9.22 28.05L0 28.05Z" id="a13rdMRIUO"></path><path d="M0.39 71.99L28.15 71.99L28.15 62.77L0.39 62.77L0.39 71.99Z" id="d2nSRLjXwS"></path><path d="M0 44.32L0 72.09L9.22 72.09L9.22 44.32L0 44.32Z" id="b2ywHDFmY3"></path></defs><g><g><g><use xlink:href="#bC3D63uYc" opacity="1" fill="#000000" fill-opacity="0.4"></use></g><g><use xlink:href="#bIY9430JO" opacity="1" fill="#806621" fill-opacity="1"></use></g><g><use xlink:href="#b3P4WoKlB" opacity="1" fill="#806621" fill-opacity="1"></use></g><g><use xlink:href="#a8DvOLp96" opacity="1" fill="#806621" fill-opacity="1"></use></g><g><use xlink:href="#a4cSWXbNM" opacity="1" fill="#806621" fill-opacity="1"></use></g><g><use xlink:href="#cgaqX4xD9" opacity="1" fill="#806621" fill-opacity="1"></use></g><g><use xlink:href="#a13rdMRIUO" opacity="1" fill="#806621" fill-opacity="1"></use></g><g><use xlink:href="#d2nSRLjXwS" opacity="1" fill="#806621" fill-opacity="1"></use></g><g><use xlink:href="#b2ywHDFmY3" opacity="1" fill="#806621" fill-opacity="1"></use></g></g></g></svg>